HIERARCHY
ROOT Hips
{
	OFFSET 0.000000 0.000000 0.000000
	CHANNELS 6 Xposition Yposition Zposition Xrotation Yrotation Zrotation
	JOINT LeftUpLeg_virtual
	{
		OFFSET 0.000000 0.000000 0.000000
		CHANNELS 3 Xrotation Yrotation Zrotation
		JOINT LeftUpLeg
		{
			OFFSET 11.394100 -6.187798 -0.413800
			CHANNELS 3 Xrotation Yrotation Zrotation
			JOINT LeftLeg
			{
				OFFSET 0.430247 -32.302673 3.732800
				CHANNELS 3 Xrotation Yrotation Zrotation
				JOINT LeftFoot
				{
					OFFSET -0.430247 -48.264931 -6.423300
					CHANNELS 3 Xrotation Yrotation Zrotation
					JOINT LeftToeBase
					{
						OFFSET 4.230900 -16.068199 23.438400
						CHANNELS 3 Xrotation Yrotation Zrotation
						JOINT LeftToe_End
						{
							OFFSET 4.510700 0.695400 19.974600
							CHANNELS 3 Xrotation Yrotation Zrotation
							End Site
							{
								OFFSET 0 0 0
							}
						}
					}
				}
			}
		}
	}
	JOINT RightUpLeg_virtual
	{
		OFFSET 0.000000 0.000000 0.000000
		CHANNELS 3 Xrotation Yrotation Zrotation
		JOINT RightUpLeg
		{
			OFFSET -11.333700 -6.187798 -0.413800
			CHANNELS 3 Xrotation Yrotation Zrotation
			JOINT RightLeg
			{
				OFFSET -0.430392 -32.302628 3.733000
				CHANNELS 3 Xrotation Yrotation Zrotation
				JOINT RightFoot
				{
					OFFSET 0.430392 -48.264973 -6.423500
					CHANNELS 3 Xrotation Yrotation Zrotation
					JOINT RightToeBase
					{
						OFFSET -4.230900 -16.068199 23.438400
						CHANNELS 3 Xrotation Yrotation Zrotation
						JOINT RightToe_End
						{
							OFFSET -4.510700 0.695400 19.974600
							CHANNELS 3 Xrotation Yrotation Zrotation
							End Site
							{
								OFFSET 0 0 0
							}
						}
					}
				}
			}
		}
	}
	JOINT Spine_virtual
	{
		OFFSET 0.000000 0.000000 0.000000
		CHANNELS 3 Xrotation Yrotation Zrotation
		JOINT Spine
		{
			OFFSET -0.002400 12.777504 0.315300
			CHANNELS 3 Xrotation Yrotation Zrotation
			JOINT Spine1
			{
				OFFSET -0.002067 5.816869 0.032633
				CHANNELS 3 Xrotation Yrotation Zrotation
				JOINT Spine1_split
				{
					OFFSET -0.002067 5.816869 0.032633
					CHANNELS 3 Xrotation Yrotation Zrotation
					JOINT Spine2
					{
						OFFSET -0.002067 5.816869 0.032633
						CHANNELS 3 Xrotation Yrotation Zrotation
						JOINT Neck_virtual
						{
							OFFSET 0.000000 0.000000 0.000000
							CHANNELS 3 Xrotation Yrotation Zrotation
							JOINT Neck
							{
								OFFSET -0.003700 21.199493 -0.826900
								CHANNELS 3 Xrotation Yrotation Zrotation
								JOINT Head
								{
									OFFSET 0.000000 20.442200 4.834800
									CHANNELS 3 Xrotation Yrotation Zrotation
									JOINT HeadTop_End
									{
										OFFSET 0.000000 34.668396 4.968400
										CHANNELS 3 Xrotation Yrotation Zrotation
										End Site
										{
											OFFSET 0 0 0
										}
									}
								}
							}
						}
						JOINT LeftShoulder_virtual
						{
							OFFSET 0.000000 0.000000 0.000000
							CHANNELS 3 Xrotation Yrotation Zrotation
							JOINT LeftShoulder
							{
								OFFSET 3.288150 8.794197 -1.372250
								CHANNELS 3 Xrotation Yrotation Zrotation
								JOINT LeftShoulder_split
								{
									OFFSET 3.288150 8.794197 -1.372250
									CHANNELS 3 Xrotation Yrotation Zrotation
									JOINT LeftArm
									{
										OFFSET 11.953299 -2.279007 -0.146200
										CHANNELS 3 Xrotation Yrotation Zrotation
										JOINT LeftForeArm
										{
											OFFSET 18.448900 0.000000 0.000000
											CHANNELS 3 Xrotation Yrotation Zrotation
											JOINT LeftHand
											{
												OFFSET 29.527798 0.000000 0.000000
												CHANNELS 3 Xrotation Yrotation Zrotation
												End Site
												{
													OFFSET 0 0 0
												}
											}
										}
									}
								}
							}
						}
						JOINT RightShoulder_virtual
						{
							OFFSET 0.000000 0.000000 0.000000
							CHANNELS 3 Xrotation Yrotation Zrotation
							JOINT RightShoulder
							{
								OFFSET -3.249400 8.794197 -1.372250
								CHANNELS 3 Xrotation Yrotation Zrotation
								JOINT RightShoulder_split
								{
									OFFSET -3.249400 8.794197 -1.372250
									CHANNELS 3 Xrotation Yrotation Zrotation
									JOINT RightArm
									{
										OFFSET -11.953299 -2.279007 -0.146200
										CHANNELS 3 Xrotation Yrotation Zrotation
										JOINT RightForeArm
										{
											OFFSET -18.448900 0.000000 0.000000
											CHANNELS 3 Xrotation Yrotation Zrotation
											JOINT RightHand
											{
												OFFSET -29.527802 0.000000 0.000000
												CHANNELS 3 Xrotation Yrotation Zrotation
												End Site
												{
													OFFSET 0 0 0
												}
											}
										}
									}
								}
							}
						}
					}
				}
			}
		}
	}
}
MOTION
Frames: 11
Frame Time: 0.03333333
0.670982 61.083267 4.929073 0.000000 0.000000 0.000000 -2.274353 4.068001 0.543565 -97.372215 -9.906126 7.410825 79.739815 7.431037 2.734481 24.397550 -6.967022 -4.969053 -6.408168 0.227043 -1.538531 0.000000 0.000000 0.000000 -2.742051 5.080109 0.786385 -99.687465 8.220487 -7.239897 83.111005 -5.187381 -3.436846 21.988331 2.998432 7.443949 4.019315 1.858382 0.831891 0.000000 0.000000 0.000000 -1.459412 0.183072 -0.423325 10.446231 0.145902 -0.140684 0.222471 1.054369 -0.539546 0.943231 0.431617 0.124473 0.000000 0.000000 0.000000 -0.287684 0.533424 0.147742 -1.863645 -0.458308 -1.583960 -11.081850 -5.096892 -5.437307 0.000000 0.000000 0.000000 -0.824207 0.856088 -0.222474 1.638495 -16.555438 -2.996091 -1.072402 -0.100894 -1.431429 -0.008894 -17.277155 -59.096620 -2.235361 -52.638332 -1.881604 0.000000 0.000000 0.000000 0.232001 0.911341 0.282497 3.480798 -8.088625 8.724101 4.614247 3.107770 -3.725413 -9.046404 38.801840 72.479946 1.293175 60.868337 -2.996462 0.000000 0.000000 0.000000 
0.707135 61.074253 4.801018 0.000000 0.000000 0.000000 -2.111028 3.989978 0.537922 -97.476649 -10.018140 7.489806 79.662491 7.242086 2.707024 24.567412 -7.055328 -5.042435 -6.318744 0.280044 -1.670539 0.000000 0.000000 0.000000 -2.772862 5.166259 0.768982 -99.789515 8.254145 -7.135987 83.199409 -5.225008 -3.444993 22.395270 2.796436 7.443909 4.069379 1.809978 1.034824 0.000000 0.000000 0.000000 -1.491390 0.114542 -0.352721 10.510814 0.119459 -0.150188 0.338116 1.058713 -0.571377 1.023816 0.479209 0.243442 0.000000 0.000000 0.000000 -0.048667 0.516321 0.185319 -1.824184 -0.526955 -1.445225 -11.133864 -5.452734 -5.388239 0.000000 0.000000 0.000000 -0.796478 0.906805 -0.197493 1.619011 -16.390620 -2.607415 -1.098160 -0.719668 -1.082394 -0.345960 -17.469643 -59.587185 -1.650802 -52.771691 -1.699280 0.000000 0.000000 0.000000 0.280216 0.873275 0.246438 3.408866 -8.045219 8.482746 4.443414 2.967929 -3.146741 -9.301024 39.031690 72.931729 1.229532 59.674079 -2.872455 0.000000 0.000000 0.000000 
0.711337 60.977669 4.740589 0.000000 0.000000 0.000000 -1.901721 3.856754 0.464168 -97.844926 -10.125434 7.637127 79.801314 7.203830 2.526108 24.681730 -6.758305 -5.119856 -6.051484 0.384872 -1.891646 0.000000 0.000000 0.000000 -2.734449 5.311345 0.674375 -99.967707 8.337066 -6.903095 83.554114 -5.163840 -3.561617 22.824653 2.501371 7.656763 3.657451 1.803359 0.992756 0.000000 0.000000 0.000000 -1.394529 0.087236 -0.313184 10.750652 0.094844 -0.135979 0.633756 1.040815 -0.653942 1.029007 0.630274 0.291969 0.000000 0.000000 0.000000 0.309239 0.500395 0.158532 -1.521171 -0.700498 -1.214889 -11.642815 -5.883669 -5.147546 0.000000 0.000000 0.000000 -0.529223 0.938400 -0.227426 1.788328 -15.564169 -1.039402 -0.580530 -0.903644 -0.805643 -2.128745 -17.571140 -61.609857 -0.844797 -53.422229 -1.335755 0.000000 0.000000 0.000000 0.564342 0.824409 0.138080 3.286676 -8.166696 7.567290 4.329655 2.758532 -2.423758 -10.466718 39.310730 74.139989 0.918048 58.305725 -2.340504 0.000000 0.000000 0.000000 
0.663127 60.836273 4.736172 0.000000 0.000000 0.000000 -1.625774 3.736189 0.334018 -98.306196 -10.237892 7.724066 80.096051 7.269313 2.300453 24.547302 -6.161427 -5.252418 -5.677052 0.513155 -2.145803 0.000000 0.000000 0.000000 -2.567310 5.528784 0.558862 -100.193186 8.454579 -6.524594 83.816851 -5.079744 -3.814009 23.033254 2.104593 7.973760 2.980745 1.844602 0.729115 0.000000 0.000000 0.000000 -1.124668 0.149785 -0.311323 11.130935 0.063460 -0.127258 1.072292 0.997458 -0.760708 1.029628 0.716939 0.201874 0.000000 0.000000 0.000000 0.757124 0.481029 0.081239 -0.979808 -0.921469 -0.909139 -12.533792 -6.258785 -4.817091 0.000000 0.000000 0.000000 -0.059687 0.928645 -0.280272 2.074695 -14.228799 1.448319 -0.054139 -0.659669 -0.613934 -5.037576 -17.589236 -64.853049 -0.001829 -54.280709 -0.902517 0.000000 0.000000 0.000000 1.044591 0.763794 -0.011151 3.159645 -8.492054 6.121146 4.409401 2.621575 -1.700180 -12.441621 39.503407 75.946847 0.536170 57.053882 -1.597594 0.000000 0.000000 0.000000 
0.615824 60.705322 4.773636 0.000000 0.000000 0.000000 -1.280414 3.683057 0.212746 -98.722530 -10.318776 7.698136 80.458139 7.303022 2.130915 24.103067 -5.493656 -5.585633 -5.347269 0.621829 -2.319987 0.000000 0.000000 0.000000 -2.286499 5.786634 0.470747 -100.445766 8.527735 -6.016028 83.814187 -5.064281 -4.174787 23.019242 1.544532 8.322730 2.357771 1.914273 0.350410 0.000000 0.000000 0.000000 -0.681067 0.337894 -0.328199 11.586031 0.012886 -0.166234 1.614568 0.935335 -0.854909 1.124710 0.448468 0.132905 0.000000 0.000000 0.000000 1.248066 0.452380 -0.017219 -0.233790 -1.178904 -0.539104 -13.617555 -6.408731 -4.491692 0.000000 0.000000 0.000000 0.579939 0.885184 -0.329210 2.385998 -12.554216 4.395044 0.212188 -0.262853 -0.785093 -8.551803 -17.595901 -68.764985 0.689941 -55.241576 -0.507203 0.000000 0.000000 0.000000 1.657486 0.698059 -0.162570 3.062771 -8.998201 4.387438 4.596383 2.615791 -1.093350 -14.879936 39.445992 78.205796 0.312731 56.111951 -0.888505 0.000000 0.000000 0.000000 
0.608564 60.622314 4.853928 0.000000 0.000000 0.000000 -0.833960 3.875344 0.163961 -99.068445 -10.302679 7.528748 80.814245 7.177071 2.050495 23.372820 -4.975009 -6.169190 -5.251805 0.677617 -2.279731 0.000000 0.000000 0.000000 -1.847285 6.081358 0.464122 -100.810307 8.561948 -5.427075 83.584857 -5.130186 -4.595829 22.991028 0.811857 8.809026 1.859817 1.961318 -0.029184 0.000000 0.000000 0.000000 -0.072830 0.751317 -0.340364 12.031767 -0.066836 -0.295898 2.223068 0.860888 -0.908214 1.113563 0.162237 -0.023033 0.000000 0.000000 0.000000 1.757294 0.424365 -0.109310 0.620305 -1.430078 -0.138595 -14.681124 -6.299645 -4.265415 0.000000 0.000000 0.000000 1.329809 0.833462 -0.366988 2.664017 -10.820474 7.299222 0.256888 0.073574 -1.302177 -11.943839 -17.539680 -72.721215 1.144257 -56.232784 -0.207431 0.000000 0.000000 0.000000 2.328279 0.641393 -0.283956 3.014516 -9.611684 2.620712 4.806484 2.702077 -0.625334 -17.462371 38.974197 80.715965 0.356480 55.522283 -0.392851 0.000000 0.000000 0.000000 
0.619870 60.593918 4.985119 0.000000 0.000000 0.000000 -0.210684 4.348939 0.202543 -99.395030 -10.095838 7.322616 81.108401 6.866042 2.029837 22.434666 -4.716316 -6.949584 -5.336136 0.678615 -2.003814 0.000000 0.000000 0.000000 -1.197619 6.497129 0.557367 -101.327195 8.595347 -4.827505 83.262062 -5.242250 -5.069893 23.092072 -0.044757 9.540196 1.260384 1.950472 -0.352750 0.000000 0.000000 0.000000 0.703921 1.348220 -0.332095 12.459793 -0.184690 -0.521605 2.840579 0.798953 -0.923553 1.091344 -0.043675 -0.165562 0.000000 0.000000 0.000000 2.257017 0.418761 -0.186437 1.449998 -1.701327 0.203190 -15.544365 -6.038989 -4.171610 0.000000 0.000000 0.000000 2.119041 0.786288 -0.400513 2.891469 -9.284131 9.737171 0.289859 0.225378 -1.642353 -14.681275 -17.365730 -76.301245 1.466196 -57.391170 0.096820 0.000000 0.000000 0.000000 3.003239 0.634415 -0.369173 2.997438 -10.221993 1.005126 4.849656 2.824244 -0.281420 -19.907304 37.980992 83.211676 0.613431 55.261797 -0.155472 0.000000 0.000000 0.000000 
0.678386 60.596443 5.280369 0.000000 0.000000 0.000000 0.649387 4.982023 0.311505 -99.845672 -9.711556 7.206268 81.319597 6.447927 1.972324 21.332303 -4.642138 -7.789762 -5.406268 0.646350 -1.592400 0.000000 0.000000 0.000000 -0.249452 6.964381 0.708969 -101.991165 8.631668 -4.264905 83.061288 -5.381728 -5.556276 23.156109 -1.006882 10.436490 0.593587 1.854530 -0.589751 0.000000 0.000000 0.000000 1.652278 2.053682 -0.283308 12.867510 -0.336538 -0.805225 3.392517 0.782000 -0.920306 1.077065 -0.229266 -0.256869 0.000000 0.000000 0.000000 2.724316 0.457361 -0.247402 2.103575 -2.000811 0.421288 -16.041387 -5.723849 -4.178230 0.000000 0.000000 0.000000 2.866468 0.772477 -0.446036 3.075472 -8.142040 11.464957 0.361351 0.171993 -1.604085 -16.341033 -16.991820 -79.121656 1.707141 -58.944614 0.466389 0.000000 0.000000 0.000000 3.639674 0.694448 -0.420136 2.971888 -10.752608 -0.350139 4.596198 2.906417 -0.058639 -21.847969 36.561709 85.397992 0.951189 55.255961 -0.147324 0.000000 0.000000 0.000000 
0.763375 60.645660 5.835712 0.000000 0.000000 0.000000 1.854924 5.647393 0.440136 -100.477451 -9.221536 7.282235 81.494108 6.047406 1.814378 20.086132 -4.595732 -8.506289 -5.302656 0.605488 -1.193886 0.000000 0.000000 0.000000 1.099483 7.434752 0.828137 -102.798110 8.690483 -3.783165 83.269643 -5.571845 -5.969201 22.924801 -2.112959 11.212740 0.461712 1.703185 -0.724438 0.000000 0.000000 0.000000 2.883750 2.784572 -0.218281 13.230880 -0.496780 -1.084568 3.840421 0.828780 -0.913572 0.923570 -0.439738 -0.319583 0.000000 0.000000 0.000000 3.127815 0.535656 -0.300003 2.485649 -2.302151 0.483976 -16.099731 -5.548818 -4.241271 0.000000 0.000000 0.000000 3.468641 0.793096 -0.518238 3.249898 -7.552308 12.445205 0.449031 0.089328 -1.243975 -17.079018 -16.293577 -81.120757 2.007176 -60.855469 0.973114 0.000000 0.000000 0.000000 4.179581 0.814524 -0.451356 2.914595 -11.141020 -1.430234 4.293964 2.817137 0.075087 -23.068931 35.031593 86.960480 1.175457 55.550704 -0.237468 0.000000 0.000000 0.000000 
0.853938 60.772678 6.765854 0.000000 0.000000 0.000000 3.434362 6.207198 0.509898 -101.304020 -8.723039 7.571644 81.729224 5.731333 1.598557 18.696101 -4.458000 -9.006203 -4.980624 0.563131 -0.915325 0.000000 0.000000 0.000000 2.863602 7.832117 0.845988 -103.718233 8.723647 -3.457895 83.982715 -5.809830 -6.229317 22.213872 -3.342859 11.726102 1.142511 1.550207 -0.764495 0.000000 0.000000 0.000000 4.483118 3.453966 -0.196167 13.533022 -0.647248 -1.290926 4.161594 0.906389 -0.905557 0.790615 -0.673807 -0.191470 0.000000 0.000000 0.000000 3.418759 0.616022 -0.350401 2.567895 -2.588777 0.412394 -15.746783 -5.634219 -4.293788 0.000000 0.000000 0.000000 3.898797 0.821103 -0.599303 3.430175 -7.497319 12.822524 0.496177 -0.013079 -0.764854 -16.997651 -15.111706 -82.382655 2.450706 -63.091072 1.690244 0.000000 0.000000 0.000000 4.574370 0.933547 -0.474596 2.850308 -11.306952 -2.207564 3.917712 2.597978 0.016548 -23.324860 33.782198 87.782930 1.199720 56.232592 -0.313872 0.000000 0.000000 0.000000 
0.892412 61.072063 8.141109 0.000000 0.000000 0.000000 5.396086 6.639977 0.466104 -102.167670 -8.311400 8.029397 82.063234 5.527004 1.417836 17.141422 -4.207221 -9.265070 -4.598261 0.504963 -0.748628 0.000000 0.000000 0.000000 4.966193 8.103026 0.743913 -104.715481 8.726607 -3.315656 85.132393 -6.021155 -6.345641 21.000038 -4.540716 12.134542 2.139408 1.422212 -0.772945 0.000000 0.000000 0.000000 6.509552 4.033196 -0.274069 13.729700 -0.759853 -1.373316 4.351783 0.980196 -0.898028 0.622302 -0.935726 0.035194 0.000000 0.000000 0.000000 3.571379 0.669315 -0.398169 2.307670 -2.823430 0.239591 -15.076582 -5.918002 -4.311571 0.000000 0.000000 0.000000 4.126015 0.825806 -0.667395 3.644849 -8.006360 12.843991 0.417872 0.019696 -0.399229 -16.288090 -13.329177 -83.028715 2.654934 -65.413473 2.219392 0.000000 0.000000 0.000000 4.758423 1.000198 -0.489648 2.823765 -11.166957 -2.631478 3.659213 2.215272 -0.308547 -22.604007 33.038308 87.893258 0.982926 57.439398 -0.247177 0.000000 0.000000 0.000000 
